<svg xmlns="http://www.w3.org/2000/svg" viewBox="0 0 100 100" width="100" height="100">
  <defs>
    <linearGradient id="veleroGrad" x1="0%" y1="0%" x2="100%" y2="100%">
      <stop offset="0%" style="stop-color:#2196f3;stop-opacity:1" />
      <stop offset="100%" style="stop-color:#1976d2;stop-opacity:1" />
    </linearGradient>
    <linearGradient id="veleroGrad2" x1="0%" y1="0%" x2="100%" y2="0%">
      <stop offset="0%" style="stop-color:#21cbf3;stop-opacity:1" />
      <stop offset="100%" style="stop-color:#2196f3;stop-opacity:1" />
    </linearGradient>
  </defs>

  <!-- Background circle -->
  <circle cx="50" cy="50" r="45" fill="none" stroke="url(#veleroGrad2)" stroke-width="2" opacity="0.3"/>

  <!-- Main V shape representing backup/restore flow -->
  <path d="M20 25 L50 65 L80 25 L70 25 L50 50 L30 25 Z" fill="url(#veleroGrad)"/>

  <!-- Cloud backup symbol at top -->
  <path d="M35 20 C35 15, 40 15, 42 17 C43 14, 48 14, 50 17 C52 14, 57 14, 58 17 C60 15, 65 15, 65 20 Z"
        fill="#21cbf3" opacity="0.8"/>

  <!-- Storage/Database symbol at bottom -->
  <ellipse cx="50" cy="75" rx="20" ry="5" fill="#1976d2" opacity="0.6"/>
  <rect x="30" y="75" width="40" height="10" fill="#1976d2" opacity="0.6"/>
  <ellipse cx="50" cy="85" rx="20" ry="5" fill="#1976d2"/>

  <!-- Connection dots showing cluster nodes -->
  <circle cx="25" cy="35" r="3" fill="#2196f3"/>
  <circle cx="50" cy="30" r="3" fill="#21cbf3"/>
  <circle cx="75" cy="35" r="3" fill="#2196f3"/>

  <!-- Connection lines -->
  <line x1="28" y1="36" x2="47" y2="31" stroke="#2196f3" stroke-width="1" opacity="0.4"/>
  <line x1="53" y1="31" x2="72" y2="36" stroke="#2196f3" stroke-width="1" opacity="0.4"/>
</svg>
